 <svg
                                    width="24"
                                    height="24"
                                    viewBox="0 0 24 24"
                                    fill="none"
                                    xmlns="http://www.w3.org/2000/svg"
                                >
                                    <path
                                        d="M12 1.5C6.20156 1.5 1.5 6.20156 1.5 12C1.5 17.7984 6.20156 22.5 12 22.5C17.7984 22.5 22.5 17.7984 22.5 12C22.5 6.20156 17.7984 1.5 12 1.5ZM12 20.7188C7.18594 20.7188 3.28125 16.8141 3.28125 12C3.28125 7.18594 7.18594 3.28125 12 3.28125C16.8141 3.28125 20.7188 7.18594 20.7188 12C20.7188 16.8141 16.8141 20.7188 12 20.7188Z"
                                        fill="#1890FF"
                                    ></path>
                                    <path
                                        d="M12 3.28125C7.18594 3.28125 3.28125 7.18594 3.28125 12C3.28125 16.8141 7.18594 20.7188 12 20.7188C16.8141 20.7188 20.7188 16.8141 20.7188 12C20.7188 7.18594 16.8141 3.28125 12 3.28125Z"
                                        fill="#E6F7FF"
                                    ></path>
                                    <path
                                        d="M9.74323 7C10.279 7 10.6911 7.154 10.9796 7.462C11.1444 7.64867 11.2722 7.90067 11.3628 8.218C11.4535 8.53533 11.4988 8.97867 11.4988 9.548V10.458H15.554V11.998H11.4988V15.19C11.4988 15.4513 11.5318 15.6473 11.5977 15.778C11.6637 15.8993 11.812 15.96 12.0428 15.96C12.2901 15.96 12.5291 15.8993 12.7599 15.778C12.9989 15.6567 13.1967 15.5027 13.3533 15.316C13.5099 15.12 13.5882 14.9053 13.5882 14.672C13.5882 14.588 13.5553 14.5087 13.4893 14.434C13.4234 14.3593 13.2956 14.322 13.1061 14.322C12.9495 14.322 12.8176 14.336 12.7104 14.364L12.5126 12.936C12.8093 12.852 13.1679 12.81 13.5882 12.81C14.0745 12.81 14.466 12.936 14.7627 13.188C15.0595 13.44 15.2078 13.832 15.2078 14.364C15.2078 14.868 15.1048 15.316 14.8987 15.708C14.6927 16.1 14.4207 16.4267 14.0828 16.688C13.7448 16.9493 13.3739 17.15 12.9701 17.29C12.5744 17.4207 12.1871 17.486 11.8079 17.486C11.4617 17.486 11.1691 17.4393 10.9301 17.346C10.6993 17.2527 10.5139 17.1313 10.3738 16.982C10.2749 16.8887 10.1883 16.7767 10.1141 16.646C10.04 16.506 9.97813 16.3193 9.92868 16.086C9.88747 15.8527 9.86686 15.54 9.86686 15.148V11.998H8.82834V10.458H9.86686V9.618C9.86686 9.26333 9.82565 8.99733 9.74323 8.82C9.66081 8.64267 9.47124 8.554 9.17452 8.554C8.95198 8.554 8.71707 8.61 8.46981 8.722L8 7.378C8.32145 7.24733 8.60992 7.154 8.86543 7.098C9.12094 7.03267 9.41354 7 9.74323 7Z"
                                        fill="#1890FF"
                                    ></path>
                                </svg>